<svg xmlns="http://www.w3.org/2000/svg" fill="none" viewBox="0 0 16 16" height="16" width="16">
<path stroke-linejoin="round" stroke-linecap="round" stroke-width="1.5" stroke="#1D1F20" d="M8.99991 14V9C8.99991 8.86739 9.05259 8.74022 9.14636 8.64645C9.24013 8.55268 9.3673 8.5 9.49991 8.5H11.4999C11.6325 8.5 11.7597 8.55268 11.8535 8.64645C11.9472 8.74022 11.9999 8.86739 11.9999 9V14M8.99991 14H1.57325M8.99991 14H11.9999M11.9999 14H14.4266M13.4999 14V6.23267M13.4999 6.23267C13.1 6.4634 12.6325 6.5487 12.1769 6.47409C11.7212 6.39948 11.3054 6.16957 10.9999 5.82333C10.6332 6.238 10.0972 6.5 9.49991 6.5C9.2161 6.50027 8.93549 6.44 8.67682 6.3232C8.41816 6.20639 8.18738 6.03575 7.99991 5.82267C7.63325 6.238 7.09725 6.5 6.49991 6.5C6.2161 6.50027 5.93549 6.44 5.67682 6.3232C5.41816 6.20639 5.18738 6.03575 4.99991 5.82267C4.69452 6.16901 4.27874 6.39905 3.82307 6.47378C3.36741 6.54851 2.89993 6.46332 2.49991 6.23267M13.4999 6.23267C13.7656 6.07927 13.9925 5.86679 14.163 5.61168C14.3334 5.35656 14.4429 5.06564 14.4829 4.76143C14.523 4.45723 14.4925 4.14789 14.3938 3.85737C14.2951 3.56684 14.1309 3.30291 13.9139 3.086L13.1206 2.29333C12.9332 2.10574 12.679 2.00023 12.4139 2H3.58525C3.32021 2.00006 3.06604 2.10532 2.87858 2.29267L2.08591 3.086C1.8694 3.30316 1.70566 3.56714 1.60729 3.85758C1.50893 4.14803 1.47858 4.45718 1.51858 4.76121C1.55858 5.06524 1.66786 5.35602 1.838 5.61114C2.00815 5.86626 2.2346 6.0789 2.49991 6.23267M2.49991 14V6.23267M4.49991 12H6.99991C7.13252 12 7.2597 11.9473 7.35347 11.8536C7.44723 11.7598 7.49991 11.6326 7.49991 11.5V9C7.49991 8.86739 7.44723 8.74022 7.35347 8.64645C7.2597 8.55268 7.13252 8.5 6.99991 8.5H4.49991C4.3673 8.5 4.24013 8.55268 4.14636 8.64645C4.05259 8.74022 3.99991 8.86739 3.99991 9V11.5C3.99991 11.776 4.22391 12 4.49991 12Z"></path>
</svg>
