<svg xmlns="http://www.w3.org/2000/svg" fill="none" viewBox="0 0 25 25" height="25" width="25">
<path stroke-linejoin="round" stroke-linecap="round" stroke-width="1.5" stroke="#1D1F20" d="M9.29181 12.28C9.29181 12.3795 9.2523 12.4749 9.18197 12.5452C9.11165 12.6155 9.01627 12.655 8.91681 12.655C8.81735 12.655 8.72197 12.6155 8.65164 12.5452C8.58132 12.4749 8.54181 12.3795 8.54181 12.28C8.54181 12.1806 8.58132 12.0852 8.65164 12.0149C8.72197 11.9445 8.81735 11.905 8.91681 11.905C9.01627 11.905 9.11165 11.9445 9.18197 12.0149C9.2523 12.0852 9.29181 12.1806 9.29181 12.28ZM9.29181 12.28H8.91681M13.0418 12.28C13.0418 12.3795 13.0023 12.4749 12.932 12.5452C12.8616 12.6155 12.7663 12.655 12.6668 12.655C12.5674 12.655 12.472 12.6155 12.4016 12.5452C12.3313 12.4749 12.2918 12.3795 12.2918 12.28C12.2918 12.1806 12.3313 12.0852 12.4016 12.0149C12.472 11.9445 12.5674 11.905 12.6668 11.905C12.7663 11.905 12.8616 11.9445 12.932 12.0149C13.0023 12.0852 13.0418 12.1806 13.0418 12.28ZM13.0418 12.28H12.6668M16.7918 12.28C16.7918 12.3795 16.7523 12.4749 16.682 12.5452C16.6116 12.6155 16.5163 12.655 16.4168 12.655C16.3174 12.655 16.222 12.6155 16.1516 12.5452C16.0813 12.4749 16.0418 12.3795 16.0418 12.28C16.0418 12.1806 16.0813 12.0852 16.1516 12.0149C16.222 11.9445 16.3174 11.905 16.4168 11.905C16.5163 11.905 16.6116 11.9445 16.682 12.0149C16.7523 12.0852 16.7918 12.1806 16.7918 12.28ZM16.7918 12.28H16.4168M21.6668 12.28C21.6668 16.836 17.6368 20.53 12.6668 20.53C11.804 20.5311 10.9448 20.4178 10.1118 20.193C8.93757 21.0189 7.50513 21.3941 6.07681 21.25C5.918 21.2347 5.75988 21.213 5.60281 21.185C6.09568 20.6042 6.43228 19.9072 6.58081 19.16C6.67081 18.703 6.44781 18.259 6.11381 17.934C4.59681 16.458 3.66681 14.469 3.66681 12.28C3.66681 7.72403 7.69681 4.03003 12.6668 4.03003C17.6368 4.03003 21.6668 7.72403 21.6668 12.28Z"></path>
</svg>
