<svg xmlns="http://www.w3.org/2000/svg" width="16" height="17" viewBox="0 0 16 17" fill="none">
<path fill-rule="evenodd" clip-rule="evenodd" d="M4.46676 3.78125H11.9668C12.0994 3.78125 12.2265 3.83393 12.3203 3.9277C12.4141 4.02146 12.4668 4.14864 12.4668 4.28125V11.7812C12.4668 11.9139 12.4141 12.041 12.3203 12.1348C12.2265 12.2286 12.0994 12.2812 11.9668 12.2812C11.8341 12.2812 11.707 12.2286 11.6132 12.1348C11.5194 12.041 11.4668 11.9139 11.4668 11.7812V5.48792L4.37309 12.6382C4.2783 12.7266 4.15294 12.7746 4.02341 12.7723C3.89387 12.7701 3.77028 12.7176 3.67867 12.626C3.58707 12.5344 3.53459 12.4108 3.53231 12.2812C3.53002 12.1517 3.5781 12.0263 3.66642 11.9316L10.7601 4.78125H4.46676C4.33415 4.78125 4.20697 4.72857 4.11321 4.6348C4.01944 4.54104 3.96676 4.41386 3.96676 4.28125C3.96676 4.14864 4.01944 4.02146 4.11321 3.9277C4.20697 3.83393 4.33415 3.78125 4.46676 3.78125Z" fill="#CB1048"/>
</svg>