<svg width="24" height="25" viewBox="0 0 24 25" fill="none" xmlns="http://www.w3.org/2000/svg">
<rect x="0.25" y="0.830078" width="23.5" height="23.5" rx="3.75" fill="#161601" fill-opacity="0.4"/>
<rect x="0.25" y="0.830078" width="23.5" height="23.5" rx="3.75" stroke="url(#paint0_linear_1450_287297)" stroke-opacity="0.7" stroke-width="0.5"/>
<rect x="0.25" y="0.830078" width="23.5" height="23.5" rx="3.75" stroke="white" stroke-width="0.5"/>
<path d="M15.0625 11.268L16.375 12.5805M16.375 12.5805L17.6875 13.893M16.375 12.5805L17.6875 11.268M16.375 12.5805L15.0625 13.893M8.9375 10.393L11.6908 7.63967C11.752 7.57856 11.8299 7.53695 11.9148 7.5201C11.9996 7.50326 12.0875 7.51192 12.1674 7.545C12.2473 7.57808 12.3156 7.6341 12.3636 7.70597C12.4117 7.77785 12.4374 7.86236 12.4375 7.94883V17.2122C12.4374 17.2986 12.4117 17.3832 12.3636 17.455C12.3156 17.5269 12.2473 17.5829 12.1674 17.616C12.0875 17.6491 11.9996 17.6577 11.9148 17.6409C11.8299 17.624 11.752 17.5824 11.6908 17.5213L8.9375 14.768H7.63084C7.1175 14.768 6.63684 14.4723 6.50034 13.9782C6.37522 13.5228 6.31204 13.0527 6.3125 12.5805C6.3125 12.0963 6.37784 11.6279 6.50034 11.1828C6.63684 10.6882 7.1175 10.393 7.63084 10.393H8.9375Z" stroke="white" stroke-linecap="round" stroke-linejoin="round"/>
<defs>
<linearGradient id="paint0_linear_1450_287297" x1="4.98292" y1="2.79962" x2="16.9312" y2="24.5801" gradientUnits="userSpaceOnUse">
<stop stop-color="white" stop-opacity="0.8"/>
<stop offset="1" stop-color="white" stop-opacity="0.4"/>
</linearGradient>
</defs>
</svg>
