<svg width="24" height="24" viewBox="0 0 24 24" fill="none" xmlns="http://www.w3.org/2000/svg">
<rect x="0.25" y="0.25" width="23.5" height="23.5" rx="3.75" fill="#161601" fill-opacity="0.4"/>
<rect x="0.25" y="0.25" width="23.5" height="23.5" rx="3.75" stroke="url(#paint0_linear_1577_453901)" stroke-opacity="0.7" stroke-width="0.5"/>
<rect x="0.25" y="0.25" width="23.5" height="23.5" rx="3.75" stroke="white" stroke-width="0.5"/>
<path d="M11.6176 6.8102C11.7317 6.86257 11.8283 6.94654 11.8961 7.05215C11.9638 7.15776 11.9999 7.28059 12 7.40607V16.5936C11.9997 16.719 11.9636 16.8416 11.8958 16.9471C11.8281 17.0526 11.7316 17.1366 11.6177 17.189C11.5038 17.2414 11.3773 17.2602 11.2531 17.2431C11.1289 17.2259 11.0122 17.1736 10.9167 17.0923L8.038 14.6248H6.53125C6.12514 14.6248 5.73566 14.4635 5.44849 14.1763C5.16133 13.8892 5 13.4997 5 13.0936V10.9061C5 10.0608 5.686 9.37482 6.53125 9.37482H8.03888L10.9167 6.90732C11.0121 6.82586 11.1288 6.77343 11.253 6.75621C11.3772 6.739 11.5037 6.75773 11.6176 6.8102ZM10.6875 8.83232L8.70825 10.5289C8.58939 10.631 8.43793 10.6872 8.28125 10.6873H6.53125C6.47323 10.6873 6.41759 10.7104 6.37657 10.7514C6.33555 10.7924 6.3125 10.8481 6.3125 10.9061V13.0936C6.3125 13.2143 6.4105 13.3123 6.53125 13.3123H8.28125C8.43788 13.3123 8.58925 13.3683 8.70825 13.4698L10.6875 15.1673V8.83232ZM16.0215 7.04907C16.1445 6.92618 16.3113 6.85715 16.4853 6.85715C16.6592 6.85715 16.826 6.92618 16.949 7.04907C17.599 7.69909 18.1147 8.47078 18.4665 9.32008C18.8183 10.1694 18.9994 11.0797 18.9994 11.999C18.9994 12.9182 18.8183 13.8285 18.4665 14.6778C18.1147 15.5271 17.599 16.2988 16.949 16.9488C16.8246 17.0649 16.66 17.1281 16.4899 17.1252C16.3198 17.1222 16.1575 17.0534 16.0373 16.9331C15.917 16.8128 15.8481 16.6505 15.8451 16.4804C15.8422 16.3103 15.9054 16.1457 16.0215 16.0213C16.5497 15.4932 16.9687 14.8662 17.2546 14.1761C17.5405 13.486 17.6876 12.7463 17.6876 11.9994C17.6876 11.2524 17.5405 10.5128 17.2546 9.8227C16.9687 9.13261 16.5497 8.50559 16.0215 7.97745C15.8986 7.8544 15.8296 7.68761 15.8296 7.5137C15.8296 7.33979 15.8986 7.17212 16.0215 7.04907ZM15.094 8.90495L15.0931 8.90582C15.9133 9.72626 16.3741 10.8389 16.3741 11.999C16.3741 13.159 15.9133 14.2716 15.0931 15.0921C15.0129 15.1785 14.9109 15.2416 14.7978 15.2749C14.6847 15.3081 14.5647 15.3103 14.4505 15.2811C14.3363 15.2519 14.2321 15.1924 14.1488 15.1089C14.0656 15.0255 14.0064 14.9211 13.9775 14.8068C13.9484 14.6927 13.9504 14.5729 13.9835 14.4599C14.0166 14.3469 14.0795 14.2449 14.1656 14.1646C14.45 13.8802 14.6756 13.5426 14.8296 13.171C14.9835 12.7994 15.0627 12.4011 15.0627 11.999C15.0627 11.5968 14.9835 11.1985 14.8296 10.8269C14.6756 10.4553 14.45 10.1177 14.1656 9.83332C14.0425 9.71021 13.9734 9.54324 13.9734 9.36914C13.9734 9.19503 14.0425 9.02806 14.1656 8.90495C14.2887 8.78184 14.4557 8.71268 14.6298 8.71268C14.8039 8.71268 14.9709 8.78184 15.094 8.90495Z" fill="white"/>
<defs>
<linearGradient id="paint0_linear_1577_453901" x1="4.98292" y1="2.21954" x2="16.9312" y2="24" gradientUnits="userSpaceOnUse">
<stop stop-color="white" stop-opacity="0.8"/>
<stop offset="1" stop-color="white" stop-opacity="0.4"/>
</linearGradient>
</defs>
</svg>
