<svg xmlns="http://www.w3.org/2000/svg" fill="none" viewBox="0 0 25 25" height="25" width="25">
<path stroke-linejoin="round" stroke-width="1.5" stroke="#1D1F20" d="M4.33337 20.03C4.33337 18.8366 4.80748 17.692 5.65139 16.848C6.49531 16.0041 7.6399 15.53 8.83337 15.53H17.8334C19.0268 15.53 20.1714 16.0041 21.0154 16.848C21.8593 17.692 22.3334 18.8366 22.3334 20.03C22.3334 20.6268 22.0963 21.1991 21.6744 21.621C21.2524 22.043 20.6801 22.28 20.0834 22.28H6.58337C5.98664 22.28 5.41434 22.043 4.99238 21.621C4.57043 21.1991 4.33337 20.6268 4.33337 20.03Z"></path>
<path stroke-width="1.5" stroke="#1D1F20" d="M13.3334 11.03C15.1973 11.03 16.7084 9.51899 16.7084 7.65503C16.7084 5.79107 15.1973 4.28003 13.3334 4.28003C11.4694 4.28003 9.95837 5.79107 9.95837 7.65503C9.95837 9.51899 11.4694 11.03 13.3334 11.03Z"></path>
</svg>
