<svg width="16" height="16" viewBox="0 0 16 16" fill="none" xmlns="http://www.w3.org/2000/svg">
<g clip-path="url(#clip0_1552_70260)">
<path fill-rule="evenodd" clip-rule="evenodd" d="M1.52588e-05 8C1.52588e-05 5.87827 0.84287 3.84344 2.34316 2.34315C3.84345 0.842855 5.87828 0 8.00002 0C10.1217 0 12.1566 0.842855 13.6569 2.34315C15.1572 3.84344 16 5.87827 16 8C16 10.1217 15.1572 12.1566 13.6569 13.6569C12.1566 15.1571 10.1217 16 8.00002 16C5.87828 16 3.84345 15.1571 2.34316 13.6569C0.84287 12.1566 1.52588e-05 10.1217 1.52588e-05 8ZM7.54348 11.424L12.1493 5.66613L11.3173 5.00053L7.38988 9.90827L4.60802 7.5904L3.92535 8.4096L7.54348 11.424Z" fill="#007D3F"/>
</g>
<defs>
<clipPath id="clip0_1552_70260">
<rect width="16" height="16" fill="white"/>
</clipPath>
</defs>
</svg>
