<svg xmlns="http://www.w3.org/2000/svg" fill="none" viewBox="0 0 42 42" height="42" width="42">
<path fill="#8F9397" d="M22.7992 3.50146C24.7686 3.50472 25.7666 3.51515 26.629 3.54082L26.9687 3.55192C27.3611 3.56586 27.7482 3.58336 28.2149 3.60524C30.0771 3.69129 31.3474 3.98586 32.463 4.41899C33.6164 4.86379 34.5907 5.46461 35.5633 6.43733C36.5346 7.41004 37.1355 8.38711 37.5818 9.53774C38.0133 10.6519 38.308 11.9236 38.3955 13.7859C38.4163 14.2525 38.4331 14.6396 38.447 15.0321L38.458 15.3717C38.4835 16.234 38.4953 17.2322 38.4989 19.2017L38.5003 20.5065C38.5005 20.6659 38.5005 20.8304 38.5005 21.0002L38.5003 21.4939L38.4993 22.7988C38.496 24.7683 38.4856 25.7665 38.4599 26.6287L38.4487 26.9684C38.4349 27.3609 38.4174 27.748 38.3955 28.2146C38.3094 30.0769 38.0133 31.3471 37.5818 32.4627C37.1369 33.6163 36.5346 34.5905 35.5633 35.5632C34.5907 36.5344 33.6121 37.1352 32.463 37.5814C31.3474 38.0132 30.0771 38.3077 28.2149 38.3952C27.7482 38.416 27.3611 38.433 26.9687 38.4466L26.629 38.4577C25.7666 38.4834 24.7686 38.4949 22.7992 38.4988L21.4942 38.5002C21.3348 38.5002 21.1703 38.5002 21.0005 38.5002H20.5068L19.2019 38.499C17.2324 38.4958 16.2343 38.4853 15.3719 38.4596L15.0323 38.4486C14.6399 38.4346 14.2528 38.4171 13.7861 38.3952C11.9238 38.3093 10.6551 38.0132 9.53798 37.5814C8.38589 37.1368 7.41026 36.5344 6.43756 35.5632C5.46486 34.5905 4.86548 33.6119 4.41923 32.4627C3.98611 31.3471 3.69298 30.0769 3.60548 28.2146C3.58469 27.748 3.56774 27.3609 3.554 26.9684L3.54299 26.6287C3.51739 25.7665 3.50572 24.7683 3.50194 22.7988L3.50171 19.2017C3.50496 17.2322 3.51538 16.234 3.54105 15.3717L3.55216 15.0321C3.56611 14.6396 3.58361 14.2525 3.60548 13.7859C3.69151 11.9221 3.98611 10.6534 4.41923 9.53774C4.86401 8.38566 5.46486 7.41004 6.43756 6.43733C7.41026 5.46461 8.38736 4.86524 9.53798 4.41899C10.6536 3.98586 11.9224 3.69274 13.7861 3.60524C14.2528 3.58447 14.6399 3.56751 15.0323 3.55377L15.3719 3.54276C16.2343 3.51714 17.2324 3.50547 19.2019 3.50169L22.7992 3.50146ZM21.0005 12.2502C16.1654 12.2502 12.2505 16.1694 12.2505 21.0002C12.2505 25.8353 16.1697 29.7502 21.0005 29.7502C25.8356 29.7502 29.7505 25.8311 29.7505 21.0002C29.7505 16.1652 25.8312 12.2502 21.0005 12.2502ZM21.0005 15.7502C23.9001 15.7502 26.2505 18.0999 26.2505 21.0002C26.2505 23.8998 23.9008 26.2502 21.0005 26.2502C18.1009 26.2502 15.7505 23.9006 15.7505 21.0002C15.7505 18.1006 18.1001 15.7502 21.0005 15.7502ZM30.188 9.62524C28.9817 9.62524 28.0005 10.6051 28.0005 11.8113C28.0005 13.0174 28.9803 13.9988 30.188 13.9988C31.3941 13.9988 32.3755 13.019 32.3755 11.8113C32.3755 10.6051 31.3925 9.62373 30.188 9.62524Z"></path>
</svg>
