<svg xmlns="http://www.w3.org/2000/svg" fill="none" viewBox="0 0 42 42" height="42" width="42">
<path fill="#8F9397" d="M23.4005 3.66524C14.744 2.47219 6.5342 7.84884 4.16612 16.262C1.79804 24.6752 5.99744 33.5461 14.0047 37.0456C13.8996 35.7014 13.9954 34.349 14.2888 33.0332C14.6119 31.5655 16.5571 23.4731 16.5571 23.4731C16.1695 22.6053 15.9756 21.6633 15.989 20.7128C15.989 18.1141 17.4887 16.1752 19.3545 16.1752C20.0326 16.1651 20.6817 16.4505 21.1327 16.9572C21.5836 17.4638 21.792 18.1417 21.7035 18.8143C21.7035 20.3896 20.6913 22.7729 20.1649 25.008C19.9524 25.8398 20.1479 26.723 20.6915 27.3875C21.235 28.0518 22.0621 28.4181 22.9192 28.3743C26.2402 28.3743 28.4681 24.1194 28.4681 19.0971C28.4681 15.2461 25.9172 12.3646 21.2175 12.3646C18.9455 12.2768 16.7368 13.1243 15.1064 14.7095C13.476 16.2947 12.5665 18.4791 12.5899 20.7533C12.5399 22.0014 12.9424 23.2255 13.7234 24.2002C14.0238 24.4237 14.1397 24.8194 14.0074 25.1697C13.9267 25.4928 13.7234 26.2603 13.6426 26.5431C13.6086 26.7365 13.4848 26.9024 13.309 26.9899C13.1333 27.0776 12.9264 27.0767 12.7514 26.9875C10.3283 26.018 9.18675 23.3518 9.18675 20.3089C9.18675 15.3269 13.3599 9.36198 21.7063 9.36198C28.3496 9.36198 32.7652 14.2228 32.7652 19.4201C32.7652 26.2603 28.9569 31.4039 23.3271 31.4039C21.617 31.4582 19.9978 30.6357 19.0328 29.2226C19.0328 29.2226 18.0204 33.2756 17.8211 34.0429C17.4143 35.3673 16.8136 36.6242 16.0388 37.7727C17.6535 38.2625 19.3324 38.5077 21.0198 38.5C25.6613 38.503 30.1136 36.6597 33.3951 33.376C36.6765 30.0925 38.5173 25.6382 38.5121 20.9956C38.507 12.2554 32.057 4.85828 23.4005 3.66524Z"></path>
</svg>
