<svg xmlns="http://www.w3.org/2000/svg" fill="none" viewBox="0 0 24 25" height="25" width="24">
<path stroke-linejoin="round" stroke-linecap="round" stroke-width="1.5" stroke="#1D1F20" d="M16.3242 8.35425V6.85425C16.3242 5.85969 15.9291 4.90586 15.2259 4.2026C14.5226 3.49934 13.5688 3.10425 12.5742 3.10425C11.5796 3.10425 10.6258 3.49934 9.92255 4.2026C9.21929 4.90586 8.8242 5.85969 8.8242 6.85425V8.35425M20.1802 9.36125L21.4432 20.3612C21.5132 21.0262 20.9932 21.6042 20.3242 21.6042H4.8242C4.66641 21.6044 4.51035 21.5714 4.36615 21.5073C4.22196 21.4432 4.09285 21.3495 3.98723 21.2323C3.8816 21.1151 3.80182 20.977 3.75306 20.8269C3.7043 20.6768 3.68765 20.5182 3.7042 20.3612L4.9682 9.36125C4.99736 9.08481 5.12783 8.82895 5.33445 8.643C5.54108 8.45706 5.80923 8.3542 6.0872 8.35425H19.0612C19.6372 8.35425 20.1202 8.78925 20.1802 9.36125Z"></path>
</svg>
